<?xml version="1.0" standalone="no"?><!DOCTYPE svg PUBLIC "-//W3C//DTD SVG 1.1//EN" "http://www.w3.org/Graphics/SVG/1.1/DTD/svg11.dtd"><svg t="1515987157425" class="icon" style="" viewBox="0 0 1025 1024" version="1.1" xmlns="http://www.w3.org/2000/svg" p-id="2465" xmlns:xlink="http://www.w3.org/1999/xlink" width="200.1953125" height="200"><defs><style type="text/css"></style></defs><path d="M972.817699 291.100025c-9.596704-19.193408-35.187915-25.591211-51.182422-9.596704l-124.757154 124.757154c-9.596704 9.596704-9.596704 19.193408-6.397803 31.989014 9.596704 41.585718 12.795606 86.370337 3.198902 134.353858-25.591211 118.359351-121.558252 207.92859-239.917604 227.121997-191.934083 25.591211-351.879152-134.353858-326.28794-326.28794 15.994507-121.558252 108.762647-217.525294 227.121998-243.116505 44.784619-9.596704 89.569239-6.397803 131.154956 3.198902 12.795606 3.198901 22.39231 0 31.989014-6.397803l124.757154-124.757154c15.994507-15.994507 9.596704-41.585718-9.596705-51.182422C646.529758 9.596704 547.363816-9.596704 438.601169 6.397803 214.678072 35.187915 32.340694 220.724195 3.550581 447.846193-34.836235 780.531936 243.468185 1058.836356 576.153928 1020.449539c227.121998-28.790112 412.658278-207.92859 444.647291-435.050587 12.795606-108.762647-6.397803-207.92859-47.98352-294.298927z" p-id="2466"></path><path d="M512.1759 383.868165c-70.37583 0-127.956055 57.580225-127.956055 127.956055s57.580225 127.956055 127.956055 127.956055 127.956055-57.580225 127.956055-127.956055c0-22.39231-6.397803-44.784619-19.193408-63.978027L950.425389 118.359351c12.795606-12.795606 12.795606-31.989014 0-44.784619-12.795606-12.795606-31.989014-12.795606-44.784619 0L576.153928 403.061574c-19.193408-12.795606-41.585718-19.193408-63.978028-19.193409z" p-id="2467"></path></svg>