<?xml version="1.0" encoding="UTF-8"?>
<svg width="137px" height="22px" viewBox="0 0 137 22" version="1.1" xmlns="http://www.w3.org/2000/svg" xmlns:xlink="http://www.w3.org/1999/xlink">
    <!-- Generator: Sketch 48.1 (47250) - http://www.bohemiancoding.com/sketch -->
    <title>Group 7</title>
    <desc>Created with Sketch.</desc>
    <defs></defs>
    <g id="登陆" stroke="none" stroke-width="1" fill="none" fill-rule="evenodd" transform="translate(-616.000000, -223.000000)">
        <g id="Group-7" transform="translate(616.000000, 223.000000)">
            <g id="logo">
                <g id="Group">
                    <polygon id="Rectangle-Copy" fill="#016DFF" opacity="0.817651721" points="16.1721808 0 10.2574568 0 20.5534256 22 26.4681496 22"></polygon>
                    <polygon id="Rectangle" fill="#01ACFF" opacity="0.816915761" points="10.2054864 0 16.279208 0 6.34234491 22 0.268623342 22"></polygon>
                    <polygon id="Rectangle-2" fill="#1472FB" opacity="0.651551178" points="10.5727041 15.7142857 23.5698962 15.7142857 26.4971921 22 7.64540816 22"></polygon>
                </g>
            </g>
            <g id="Group-3-Copy" transform="translate(33.000000, 5.000000)" fill="#303030">
                <g id="Group-2">
                    <g id="Group" fill-rule="nonzero">
                        <path d="M1.88085106,15.7142857 C1.49361702,15.7142857 1.21702128,15.7142857 0.995744681,15.7142857 C0.774468085,15.7142857 0.442553191,15.7142857 0.110638298,15.7142857 L0.110638298,0.514285714 L1.88085106,0.514285714 L9.84680851,12.3428571 L10.012766,12.3428571 L10.012766,0.514285714 L11.8382979,0.514285714 L11.8382979,15.7142857 L10.0680851,15.7142857 L2.10212766,3.94285714 L1.93617021,3.94285714 L1.93617021,15.7142857 L1.88085106,15.7142857 Z" id="Shape"></path>
                        <path d="M25.6680851,15.7142857 C25.3914894,14.8571429 25.1148936,14.1142857 24.9489362,13.5428571 C24.7276596,12.9714286 24.506383,12.2285714 24.2297872,11.3714286 L18.3659574,11.3714286 L16.8723404,15.7142857 L14.9361702,15.7142857 L20.3574468,0.514285714 L22.1829787,0.514285714 L27.6042553,15.7142857 L25.6680851,15.7142857 Z M21.187234,2.97142857 C20.8553191,3.88571429 20.5787234,4.68571429 20.3574468,5.37142857 C20.1361702,6.05714286 19.9148936,6.74285714 19.693617,7.37142857 C19.4723404,8.05714286 19.1957447,8.85714286 18.8638298,9.77142857 L23.6212766,9.77142857 L21.2978723,2.97142857 L21.187234,2.97142857 Z" id="Shape"></path>
                        <path d="M39.6638298,14 C39.6638298,14.3428571 39.6638298,14.6285714 39.6638298,14.8571429 C39.6638298,15.0857143 39.6638298,15.3714286 39.6638298,15.7142857 L30.7574468,15.7142857 L30.7574468,0.514285714 L32.5829787,0.514285714 L32.5829787,14 L39.6638298,14 Z" id="Shape"></path>
                        <path d="M47.3531915,15.7142857 C46.9659574,15.7142857 46.6893617,15.7142857 46.412766,15.7142857 C46.1361702,15.7142857 45.8595745,15.7142857 45.4723404,15.7142857 L45.4723404,9.14285714 L40.2723404,0.514285714 L42.3744681,0.514285714 L46.3574468,7.25714286 L46.5234043,7.25714286 L50.506383,0.514285714 L52.6085106,0.514285714 L47.4085106,9.14285714 L47.4085106,15.7142857 L47.3531915,15.7142857 Z" id="Shape"></path>
                        <path d="M54.4893617,11.7142857 C54.8765957,11.7142857 55.1531915,11.7142857 55.4297872,11.7142857 C55.6510638,11.7142857 55.9829787,11.7142857 56.3702128,11.7142857 C56.4808511,12.5142857 56.8680851,13.1428571 57.587234,13.6 C58.2510638,14.0571429 59.1361702,14.2857143 60.187234,14.2857143 C61.1829787,14.2857143 62.012766,14.0571429 62.6212766,13.5428571 C63.2851064,13.0285714 63.6170213,12.4 63.6170213,11.6571429 C63.6170213,11.0285714 63.3957447,10.4571429 62.8978723,10.0571429 C62.4,9.65714286 61.6808511,9.25714286 60.6851064,9.02857143 L58.8042553,8.51428571 C57.4765957,8.17142857 56.4808511,7.65714286 55.9276596,7.02857143 C55.3744681,6.4 55.0425532,5.54285714 55.0425532,4.45714286 C55.0425532,3.14285714 55.5404255,2.11428571 56.4808511,1.31428571 C57.4212766,0.514285714 58.693617,0.114285714 60.2425532,0.114285714 C61.6808511,0.114285714 62.8425532,0.514285714 63.7829787,1.31428571 C64.7234043,2.11428571 65.2765957,3.08571429 65.3319149,4.34285714 L63.506383,4.34285714 C63.3957447,3.54285714 63.0085106,2.97142857 62.4553191,2.51428571 C61.8468085,2.05714286 61.1276596,1.82857143 60.187234,1.82857143 C59.1914894,1.82857143 58.4170213,2.05714286 57.8085106,2.51428571 C57.2,2.97142857 56.9234043,3.6 56.9234043,4.34285714 C56.9234043,4.91428571 57.1446809,5.42857143 57.587234,5.77142857 C58.0297872,6.11428571 58.7489362,6.45714286 59.7446809,6.74285714 L61.293617,7.14285714 C62.8425532,7.54285714 63.893617,8.05714286 64.5574468,8.74285714 C65.2212766,9.42857143 65.5531915,10.2857143 65.5531915,11.4285714 C65.5531915,12.8 65.0553191,13.9428571 64.0595745,14.7428571 C63.0638298,15.5428571 61.7361702,16 60.0765957,16 C58.5276596,16 57.2553191,15.6 56.2595745,14.8 C55.0978723,14.0571429 54.5446809,13.0285714 54.4893617,11.7142857 Z" id="Shape"></path>
                        <path d="M74.6808511,15.7142857 C74.293617,15.7142857 74.0170213,15.7142857 73.7404255,15.7142857 C73.5191489,15.7142857 73.187234,15.7142857 72.8,15.7142857 L72.8,2.22857143 L68.0425532,2.22857143 L68.0425532,0.514285714 L79.3276596,0.514285714 L79.3276596,2.22857143 L74.6808511,2.22857143 L74.6808511,15.7142857 Z" id="Shape"></path>
                        <path d="M97.4170213,15.7142857 C97.1404255,14.8571429 96.8638298,14.1142857 96.6978723,13.5428571 C96.4765957,12.9714286 96.2553191,12.2285714 95.9787234,11.3714286 L90.1148936,11.3714286 L88.6212766,15.7142857 L86.6851064,15.7142857 L92.106383,0.514285714 L93.9319149,0.514285714 L99.3531915,15.7142857 L97.4170213,15.7142857 Z M92.9361702,2.97142857 C92.6042553,3.88571429 92.3276596,4.68571429 92.106383,5.37142857 C91.8851064,6.05714286 91.6638298,6.74285714 91.4425532,7.37142857 C91.2212766,8.05714286 90.9446809,8.85714286 90.612766,9.77142857 L95.3702128,9.77142857 L93.0468085,2.97142857 L92.9361702,2.97142857 Z" id="Shape"></path>
                        <path d="M103.778723,15.7142857 C103.391489,15.7142857 103.114894,15.7142857 102.838298,15.7142857 C102.561702,15.7142857 102.285106,15.7142857 101.897872,15.7142857 L101.897872,0.514285714 L103.723404,0.514285714 L103.723404,15.7142857 L103.778723,15.7142857 Z" id="Shape"></path>
                    </g>
                    <rect id="Rectangle-3" x="81.8723404" y="13.7142857" width="2.21276596" height="2.28571429"></rect>
                </g>
            </g>
        </g>
    </g>
</svg>