<?xml version="1.0" encoding="UTF-8"?>
<svg width="24px" height="20px" viewBox="0 0 24 20" version="1.1" xmlns="http://www.w3.org/2000/svg" xmlns:xlink="http://www.w3.org/1999/xlink">
    <!-- Generator: Sketch 48.2 (47327) - http://www.bohemiancoding.com/sketch -->
    <title>icon/引号</title>
    <desc>Created with Sketch.</desc>
    <defs></defs>
    <g id="Symbols" stroke="none" stroke-width="1" fill="none" fill-rule="evenodd">
        <g id="icon/引号" fill="#DDDDDD">
            <path d="M8.64468864,0.732600733 C7.91208425,1.31868425 7.16728095,1.95359853 6.41025641,2.63736264 C5.65323187,3.32112674 4.94505824,4.07813993 4.28571429,4.90842491 C3.62637033,5.73870989 3.08913516,6.60561209 2.67399267,7.50915751 C2.25885018,8.41270293 2.05128205,9.37728425 2.05128205,10.4029304 C2.05128205,11.3797363 2.21001062,12.1611692 2.52747253,12.7472527 C2.84493443,13.3333363 3.07692234,13.7484725 3.22344322,13.992674 C3.51648498,13.6507919 3.91941136,13.2600755 4.43223443,12.8205128 C4.94505751,12.3809502 5.61660147,12.1611722 6.44688645,12.1611722 C7.52137289,12.1611722 8.42490476,12.5030491 9.15750916,13.1868132 C9.89011355,13.8705773 10.2564103,14.7985289 10.2564103,15.970696 C10.2564103,16.9475018 9.86569377,17.8632436 9.08424908,18.7179487 C8.3028044,19.5726538 7.27717363,20 6.00732601,20 C4.73747839,20 3.71184762,19.7313824 2.93040293,19.1941392 C2.14895824,18.656896 1.53846374,18.0097718 1.0989011,17.2527473 C0.659338462,16.4957227 0.366301099,15.7142897 0.21978022,14.9084249 C0.0732593407,14.1025601 0,13.4554359 0,12.967033 C0,11.4041436 0.280827473,9.95116667 0.842490842,8.60805861 C1.40415421,7.26495055 2.10011795,6.04396154 2.93040293,4.94505495 C3.76068791,3.84614835 4.6398,2.88156703 5.56776557,2.05128205 C6.49573114,1.22099707 7.32600366,0.537243223 8.05860806,0 L8.64468864,0.732600733 Z M22.2710623,0.732600733 C21.5384579,1.31868425 20.7936546,1.95359853 20.03663,2.63736264 C19.2796055,3.32112674 18.5714319,4.07813993 17.9120879,4.90842491 C17.252744,5.73870989 16.7155088,6.60561209 16.3003663,7.50915751 C15.8852238,8.41270293 15.6776557,9.37728425 15.6776557,10.4029304 C15.6776557,11.3797363 15.8363842,12.1611692 16.1538462,12.7472527 C16.4713081,13.3333363 16.703296,13.7484725 16.8498168,13.992674 C17.1428586,13.6507919 17.545785,13.2600755 18.0586081,12.8205128 C18.5714311,12.3809502 19.2429751,12.1611722 20.0732601,12.1611722 C21.1477465,12.1611722 22.0512784,12.5030491 22.7838828,13.1868132 C23.5164872,13.8705773 23.8827839,14.7985289 23.8827839,15.970696 C23.8827839,16.9475018 23.4920674,17.8632436 22.7106227,18.7179487 C21.929178,19.5726538 20.9035473,20 19.6336996,20 C18.363852,20 17.3382212,19.7313824 16.5567766,19.1941392 C15.7753319,18.656896 15.1648374,18.0097718 14.7252747,17.2527473 C14.2857121,16.4957227 13.9926747,15.7142897 13.8461538,14.9084249 C13.699633,14.1025601 13.6263736,13.4554359 13.6263736,12.967033 C13.6263736,11.4041436 13.9072011,9.95116667 14.4688645,8.60805861 C15.0305278,7.26495055 15.7264916,6.04396154 16.5567766,4.94505495 C17.3870615,3.84614835 18.2661736,2.88156703 19.1941392,2.05128205 C20.1221048,1.22099707 20.9523773,0.537243223 21.6849817,0 L22.2710623,0.732600733 Z" id="“"></path>
        </g>
    </g>
</svg>